<?xml version="1.0" encoding="UTF-8" standalone="no"?>
<!-- Created with Inkscape (http://www.inkscape.org/) -->

<svg
   xmlns:dc="http://purl.org/dc/elements/1.1/"
   xmlns:cc="http://creativecommons.org/ns#"
   xmlns:rdf="http://www.w3.org/1999/02/22-rdf-syntax-ns#"
   xmlns:svg="http://www.w3.org/2000/svg"
   xmlns="http://www.w3.org/2000/svg"
   xmlns:sodipodi="http://sodipodi.sourceforge.net/DTD/sodipodi-0.dtd"
   xmlns:inkscape="http://www.inkscape.org/namespaces/inkscape"
   id="svg2"
   version="1.1"
   inkscape:version="0.48.4 r9939"
   width="766.25"
   height="207.175"
   xml:space="preserve"
   sodipodi:docname="Logo_UNA-SUS_Horizontal.ai"><metadata
     id="metadata8"><rdf:RDF><cc:Work
         rdf:about=""><dc:format>image/svg+xml</dc:format><dc:type
           rdf:resource="http://purl.org/dc/dcmitype/StillImage" /><dc:title></dc:title></cc:Work></rdf:RDF></metadata><defs
     id="defs6"><clipPath
       clipPathUnits="userSpaceOnUse"
       id="clipPath16"><path
         d="m 0,165.74 613,0 L 613,0 0,0 0,165.74 z"
         id="path18" /></clipPath></defs><sodipodi:namedview
     pagecolor="#ffffff"
     bordercolor="#666666"
     borderopacity="1"
     objecttolerance="10"
     gridtolerance="10"
     guidetolerance="10"
     inkscape:pageopacity="0"
     inkscape:pageshadow="2"
     inkscape:window-width="640"
     inkscape:window-height="480"
     id="namedview4"
     showgrid="false"
     inkscape:zoom="0.51158238"
     inkscape:cx="383.125"
     inkscape:cy="103.5875"
     inkscape:window-x="0"
     inkscape:window-y="27"
     inkscape:window-maximized="0"
     inkscape:current-layer="g10" /><g
     id="g10"
     inkscape:groupmode="layer"
     inkscape:label="Logo_UNA-SUS_Horizontal"
     transform="matrix(1.25,0,0,-1.25,0,207.175)"><g
       id="g12"><g
         id="g14"
         clip-path="url(#clipPath16)"><g
           id="g20"
           transform="translate(205.8721,56.8066)"><path
             d="m 0,0 2.416,0 0,-14.102 c 0,-1.267 -0.166,-2.367 -0.499,-3.293 -0.332,-0.925 -0.804,-1.685 -1.418,-2.279 -0.614,-0.596 -1.355,-1.033 -2.22,-1.314 -0.866,-0.282 -1.822,-0.422 -2.869,-0.422 -2.496,0 -4.378,0.562 -5.646,1.691 -1.269,1.127 -1.903,2.838 -1.903,5.133 l 0,14.586 2.506,0 0,-13.408 c 0,-1.069 0.106,-1.967 0.318,-2.703 0.211,-0.737 0.528,-1.326 0.951,-1.782 0.423,-0.453 0.95,-0.781 1.585,-0.982 0.634,-0.199 1.374,-0.301 2.22,-0.301 1.63,0 2.797,0.449 3.502,1.344 0.704,0.896 1.057,2.371 1.057,4.424 L 0,0 z"
             style="fill:#666769;fill-opacity:1;fill-rule:nonzero;stroke:none"
             id="path22" /></g><g
           id="g24"
           transform="translate(225.1377,35.668)"><path
             d="m 0,0 0,8.605 c 0,1.573 -0.227,2.754 -0.68,3.547 -0.452,0.797 -1.283,1.196 -2.491,1.196 -1.067,0 -1.948,-0.287 -2.642,-0.862 -0.695,-0.574 -1.183,-1.295 -1.464,-2.16 l 0,-10.326 -2.416,0 0,15.098 1.691,0 0.453,-1.842 0.121,0 c 0.483,0.644 1.132,1.172 1.947,1.586 0.815,0.412 1.786,0.619 2.914,0.619 0.825,0 1.55,-0.096 2.174,-0.287 C 0.231,14.982 0.75,14.645 1.162,14.162 1.574,13.68 1.887,13.029 2.099,12.215 2.31,11.398 2.415,10.367 2.415,9.119 L 2.415,0 0,0 z"
             style="fill:#666769;fill-opacity:1;fill-rule:nonzero;stroke:none"
             id="path26" /></g><path
           d="m 234.74,50.766 2.416,0 0,-15.098 -2.416,0 0,15.098 z m -0.513,4.589 c 0,0.465 0.155,0.862 0.467,1.192 0.312,0.334 0.71,0.502 1.194,0.502 0.483,0 0.895,-0.168 1.237,-0.502 0.343,-0.33 0.514,-0.727 0.514,-1.192 0,-0.462 -0.171,-0.843 -0.514,-1.146 -0.342,-0.303 -0.754,-0.453 -1.237,-0.453 -0.484,0 -0.882,0.15 -1.194,0.453 -0.312,0.303 -0.467,0.684 -0.467,1.146"
           style="fill:#666769;fill-opacity:1;fill-rule:nonzero;stroke:none"
           id="path28" /><g
           id="g30"
           transform="translate(248.9316,41.9199)"><path
             d="m 0,0 0.846,-2.869 0.03,0 0.755,2.93 3.382,8.785 2.597,0 -6.432,-15.43 -1.027,0 -6.552,15.43 2.777,0 L 0,0 z"
             style="fill:#666769;fill-opacity:1;fill-rule:nonzero;stroke:none"
             id="path32" /></g><g
           id="g34"
           transform="translate(266.8994,49.0156)"><path
             d="m 0,0 c -1.188,0 -2.139,-0.312 -2.854,-0.937 -0.714,-0.624 -1.143,-1.69 -1.283,-3.2 l 7.489,0 c 0,1.53 -0.292,2.602 -0.875,3.217 C 1.892,-0.307 1.067,0 0,0 M 5.193,-12.139 C 4.59,-12.621 3.83,-13.004 2.914,-13.287 1.998,-13.57 1.027,-13.709 0,-13.709 c -1.147,0 -2.144,0.186 -2.989,0.557 -0.846,0.373 -1.541,0.906 -2.084,1.601 -0.544,0.696 -0.946,1.524 -1.208,2.49 -0.262,0.967 -0.393,2.053 -0.393,3.262 0,2.576 0.574,4.539 1.722,5.889 1.148,1.347 2.787,2.023 4.922,2.023 0.684,0 1.368,-0.076 2.053,-0.226 C 2.708,1.736 3.321,1.449 3.865,1.025 4.408,0.604 4.851,0.004 5.193,-0.771 c 0.343,-0.774 0.515,-1.797 0.515,-3.065 0,-0.664 -0.062,-1.4 -0.182,-2.203 l -9.693,0 c 0,-0.887 0.09,-1.672 0.271,-2.357 0.182,-0.684 0.463,-1.262 0.846,-1.735 0.382,-0.473 0.881,-0.836 1.495,-1.088 0.614,-0.252 1.364,-0.377 2.249,-0.377 0.684,0 1.369,0.119 2.054,0.362 0.684,0.242 1.197,0.523 1.54,0.845 l 0.905,-1.75 z"
             style="fill:#666769;fill-opacity:1;fill-rule:nonzero;stroke:none"
             id="path36" /></g><g
           id="g38"
           transform="translate(285.8022,48.4395)"><path
             d="m 0,0 c -0.604,0.203 -1.178,0.305 -1.721,0.305 -0.866,0 -1.55,-0.239 -2.054,-0.711 -0.503,-0.473 -0.815,-1.073 -0.936,-1.797 l 0,-10.568 -2.415,0 0,15.097 1.69,0 0.453,-1.842 0.121,0 c 0.383,0.684 0.841,1.213 1.374,1.586 0.533,0.373 1.213,0.559 2.039,0.559 0.583,0 1.238,-0.102 1.963,-0.303 L 0,0 z"
             style="fill:#666769;fill-opacity:1;fill-rule:nonzero;stroke:none"
             id="path40" /></g><g
           id="g42"
           transform="translate(297.8506,39.7754)"><path
             d="M 0,0 C 0,0.604 -0.181,1.076 -0.543,1.42 -0.906,1.762 -1.354,2.047 -1.887,2.281 -2.421,2.512 -3.004,2.732 -3.638,2.943 -4.272,3.154 -4.856,3.426 -5.39,3.76 -5.924,4.09 -6.372,4.52 -6.734,5.043 -7.096,5.564 -7.277,6.27 -7.277,7.156 c 0,1.449 0.412,2.51 1.237,3.186 0.826,0.674 1.974,1.012 3.443,1.012 1.087,0 1.998,-0.096 2.733,-0.288 0.735,-0.191 1.374,-0.418 1.918,-0.677 L 1.48,8.395 C 1.016,8.615 0.458,8.811 -0.196,8.982 -0.851,9.154 -1.55,9.24 -2.295,9.24 -3.181,9.24 -3.83,9.088 -4.242,8.787 -4.655,8.484 -4.861,7.961 -4.861,7.215 c 0,-0.524 0.181,-0.93 0.543,-1.221 0.362,-0.293 0.81,-0.555 1.343,-0.785 C -2.441,4.977 -1.857,4.75 -1.223,4.527 -0.589,4.309 -0.005,4.016 0.528,3.654 1.062,3.291 1.51,2.832 1.872,2.281 2.235,1.725 2.416,0.996 2.416,0.09 2.416,-0.553 2.31,-1.158 2.099,-1.721 1.887,-2.285 1.56,-2.768 1.117,-3.17 0.675,-3.574 0.125,-3.893 -0.528,-4.123 c -0.655,-0.231 -1.425,-0.346 -2.31,-0.346 -1.148,0 -2.124,0.11 -2.93,0.332 -0.805,0.221 -1.479,0.483 -2.023,0.785 l 0.725,2.053 c 0.463,-0.262 1.067,-0.504 1.812,-0.724 0.744,-0.221 1.5,-0.332 2.265,-0.332 0.865,0 1.58,0.169 2.143,0.511 C -0.282,-1.5 0,-0.887 0,0"
             style="fill:#666769;fill-opacity:1;fill-rule:nonzero;stroke:none"
             id="path44" /></g><path
           d="m 306.698,50.766 2.416,0 0,-15.098 -2.416,0 0,15.098 z m -0.513,4.589 c 0,0.465 0.156,0.862 0.468,1.192 0.312,0.334 0.709,0.502 1.192,0.502 0.484,0 0.896,-0.168 1.238,-0.502 0.343,-0.33 0.514,-0.727 0.514,-1.192 0,-0.462 -0.171,-0.843 -0.514,-1.146 -0.342,-0.303 -0.754,-0.453 -1.238,-0.453 -0.483,0 -0.88,0.15 -1.192,0.453 -0.312,0.303 -0.468,0.684 -0.468,1.146"
           style="fill:#666769;fill-opacity:1;fill-rule:nonzero;stroke:none"
           id="path46" /><g
           id="g48"
           transform="translate(322.0376,37.4199)"><path
             d="M 0,0 C 1.027,0 1.843,0.266 2.446,0.801 3.05,1.332 3.463,2.143 3.684,3.23 l 0,7.489 C 3.322,11 2.909,11.203 2.446,11.324 c -0.463,0.119 -1.077,0.18 -1.842,0.18 -1.389,0 -2.476,-0.457 -3.262,-1.373 C -3.442,9.215 -3.834,7.75 -3.834,5.738 -3.834,4.91 -3.77,4.146 -3.639,3.441 -3.508,2.736 -3.292,2.133 -2.989,1.631 -2.688,1.127 -2.291,0.73 -1.797,0.437 -1.304,0.146 -0.705,0 0,0 M 6.1,3.441 C 6.1,2.416 6.109,1.484 6.13,0.648 6.15,-0.187 6.24,-1.008 6.402,-1.811 l -1.631,0 -0.604,2.143 -0.12,0 C 3.644,-0.373 3.06,-0.955 2.295,-1.42 1.529,-1.883 0.634,-2.113 -0.392,-2.113 c -2.014,0 -3.509,0.633 -4.485,1.902 -0.976,1.268 -1.464,3.252 -1.464,5.949 0,2.576 0.608,4.533 1.827,5.871 1.217,1.34 2.894,2.01 5.028,2.01 0.744,0 1.333,-0.041 1.766,-0.121 0.432,-0.082 0.901,-0.211 1.404,-0.393 l 0,6.282 2.416,0 0,-15.946 z"
             style="fill:#666769;fill-opacity:1;fill-rule:nonzero;stroke:none"
             id="path50" /></g><g
           id="g52"
           transform="translate(339.0986,37.5391)"><path
             d="m 0,0 c 0.563,0 1.066,0.076 1.51,0.229 0.443,0.15 0.825,0.341 1.147,0.572 0.322,0.23 0.589,0.488 0.801,0.769 0.211,0.284 0.367,0.555 0.467,0.817 l 0,2.508 C 3.643,4.914 3.357,4.928 3.065,4.937 2.772,4.949 2.486,4.953 2.205,4.953 1.581,4.953 0.971,4.918 0.377,4.848 -0.216,4.777 -0.74,4.646 -1.193,4.455 -1.646,4.264 -2.008,4.002 -2.28,3.67 -2.552,3.338 -2.688,2.922 -2.688,2.416 -2.688,1.713 -2.436,1.133 -1.933,0.682 -1.43,0.229 -0.785,0 0,0 m -4.288,12.109 c 0.765,0.463 1.656,0.805 2.673,1.028 1.016,0.22 2.077,0.332 3.185,0.332 1.046,0 1.888,-0.141 2.522,-0.422 C 4.725,12.764 5.208,12.396 5.541,11.943 5.873,11.49 6.094,10.994 6.206,10.449 6.316,9.906 6.372,9.363 6.372,8.818 6.372,7.611 6.341,6.432 6.281,5.285 6.22,4.139 6.19,3.051 6.19,2.023 c 0,-0.744 0.03,-1.447 0.091,-2.113 0.06,-0.664 0.17,-1.277 0.332,-1.84 l -1.782,0 -0.633,2.112 -0.152,0 C 3.865,-0.1 3.638,-0.377 3.367,-0.648 3.095,-0.92 2.768,-1.162 2.386,-1.373 2.003,-1.584 1.56,-1.762 1.057,-1.9 0.554,-2.041 -0.021,-2.111 -0.665,-2.111 c -0.645,0 -1.243,0.099 -1.796,0.3 -0.554,0.202 -1.032,0.489 -1.435,0.862 -0.402,0.371 -0.719,0.818 -0.951,1.342 -0.231,0.525 -0.347,1.119 -0.347,1.783 0,0.885 0.181,1.625 0.543,2.219 0.363,0.595 0.871,1.066 1.526,1.419 0.654,0.354 1.438,0.602 2.354,0.754 0.917,0.153 1.928,0.229 3.036,0.229 l 0.83,0 c 0.272,0 0.548,-0.022 0.83,-0.063 0.061,0.606 0.091,1.149 0.091,1.631 0,1.108 -0.222,1.883 -0.664,2.326 -0.443,0.444 -1.248,0.664 -2.415,0.664 -0.343,0 -0.71,-0.025 -1.104,-0.078 -0.392,-0.05 -0.794,-0.125 -1.207,-0.216 -0.413,-0.094 -0.806,-0.209 -1.178,-0.344 -0.373,-0.133 -0.699,-0.283 -0.981,-0.447 l -0.755,1.839 z"
             style="fill:#666769;fill-opacity:1;fill-rule:nonzero;stroke:none"
             id="path54" /></g><g
           id="g56"
           transform="translate(357.79,37.4199)"><path
             d="M 0,0 C 1.027,0 1.842,0.266 2.446,0.801 3.05,1.332 3.462,2.143 3.684,3.23 l 0,7.489 C 3.321,11 2.909,11.203 2.446,11.324 c -0.464,0.119 -1.078,0.18 -1.842,0.18 -1.389,0 -2.476,-0.457 -3.262,-1.373 C -3.442,9.215 -3.835,7.75 -3.835,5.738 -3.835,4.91 -3.77,4.146 -3.639,3.441 -3.508,2.736 -3.292,2.133 -2.989,1.631 -2.688,1.127 -2.291,0.73 -1.797,0.437 -1.304,0.146 -0.705,0 0,0 M 6.1,3.441 C 6.1,2.416 6.109,1.484 6.13,0.648 6.15,-0.187 6.241,-1.008 6.402,-1.811 l -1.631,0 -0.604,2.143 -0.12,0 C 3.644,-0.373 3.06,-0.955 2.295,-1.42 1.529,-1.883 0.634,-2.113 -0.392,-2.113 c -2.014,0 -3.509,0.633 -4.485,1.902 -0.977,1.268 -1.464,3.252 -1.464,5.949 0,2.576 0.608,4.533 1.827,5.871 1.217,1.34 2.894,2.01 5.027,2.01 0.745,0 1.334,-0.041 1.767,-0.121 0.432,-0.082 0.901,-0.211 1.404,-0.393 l 0,6.282 2.416,0 0,-15.946 z"
             style="fill:#666769;fill-opacity:1;fill-rule:nonzero;stroke:none"
             id="path58" /></g><g
           id="g60"
           transform="translate(376.6318,49.0156)"><path
             d="m 0,0 c -1.187,0 -2.139,-0.312 -2.853,-0.937 -0.715,-0.624 -1.143,-1.69 -1.284,-3.2 l 7.491,0 c 0,1.53 -0.294,2.602 -0.877,3.217 C 1.893,-0.307 1.066,0 0,0 M 5.194,-12.139 C 4.591,-12.621 3.83,-13.004 2.915,-13.287 1.998,-13.57 1.027,-13.709 0,-13.709 c -1.146,0 -2.144,0.186 -2.988,0.557 -0.847,0.373 -1.541,0.906 -2.084,1.601 -0.544,0.696 -0.947,1.524 -1.208,2.49 -0.262,0.967 -0.393,2.053 -0.393,3.262 0,2.576 0.573,4.539 1.722,5.889 1.147,1.347 2.788,2.023 4.922,2.023 0.683,0 1.368,-0.076 2.052,-0.226 C 2.708,1.736 3.322,1.449 3.865,1.025 4.408,0.604 4.852,0.004 5.194,-0.771 c 0.342,-0.774 0.515,-1.797 0.515,-3.065 0,-0.664 -0.062,-1.4 -0.183,-2.203 l -9.692,0 c 0,-0.887 0.09,-1.672 0.271,-2.357 0.182,-0.684 0.463,-1.262 0.846,-1.735 0.381,-0.473 0.88,-0.836 1.494,-1.088 0.614,-0.252 1.364,-0.377 2.25,-0.377 0.684,0 1.368,0.119 2.054,0.362 0.684,0.242 1.196,0.523 1.54,0.845 l 0.905,-1.75 z"
             style="fill:#666769;fill-opacity:1;fill-rule:nonzero;stroke:none"
             id="path62" /></g><g
           id="g64"
           transform="translate(401.1074,43.7012)"><path
             d="M 0,0 6.188,0 3.847,6.432 3.095,9.633 3.064,9.633 2.313,6.371 0,0 z m 6.94,-2.176 -7.752,0 -2.103,-5.857 -2.506,0 8.002,21.469 1.148,0 8.033,-21.469 -2.658,0 -2.164,5.857 z"
             style="fill:#666769;fill-opacity:1;fill-rule:nonzero;stroke:none"
             id="path66" /></g><g
           id="g68"
           transform="translate(423.9199,49.0156)"><path
             d="M 0,0 C -1.006,0 -1.821,-0.283 -2.445,-0.846 -3.07,-1.41 -3.523,-2.205 -3.805,-3.23 l 0,-7.612 c 0.383,-0.222 0.847,-0.387 1.389,-0.496 0.543,-0.111 1.107,-0.168 1.691,-0.168 1.369,0 2.461,0.485 3.277,1.449 0.814,0.967 1.222,2.479 1.222,4.53 0,0.785 -0.071,1.521 -0.211,2.205 -0.14,0.683 -0.362,1.267 -0.665,1.752 -0.3,0.482 -0.688,0.865 -1.162,1.146 C 1.263,-0.141 0.685,0 0,0 m -6.221,7.791 2.416,0 0,-7.52 0.121,0 c 0.462,0.584 1.052,1.038 1.767,1.36 0.714,0.32 1.493,0.482 2.34,0.482 1.952,0 3.419,-0.625 4.393,-1.873 0.976,-1.248 1.465,-3.179 1.465,-5.797 0,-2.638 -0.645,-4.64 -1.932,-6.009 -1.289,-1.37 -3.1,-2.053 -5.436,-2.053 -1.127,0 -2.149,0.121 -3.065,0.361 -0.915,0.242 -1.605,0.504 -2.069,0.785 l 0,20.264 z"
             style="fill:#666769;fill-opacity:1;fill-rule:nonzero;stroke:none"
             id="path70" /></g><g
           id="g72"
           transform="translate(442.0977,49.0156)"><path
             d="m 0,0 c -1.187,0 -2.139,-0.312 -2.853,-0.937 -0.713,-0.624 -1.142,-1.69 -1.283,-3.2 l 7.489,0 c 0,1.53 -0.29,2.602 -0.875,3.217 C 1.893,-0.307 1.067,0 0,0 M 5.195,-12.139 C 4.591,-12.621 3.831,-13.004 2.915,-13.287 1.999,-13.57 1.029,-13.709 0,-13.709 c -1.146,0 -2.142,0.186 -2.988,0.557 -0.845,0.373 -1.54,0.906 -2.083,1.601 -0.544,0.696 -0.948,1.524 -1.208,2.49 -0.262,0.967 -0.393,2.053 -0.393,3.262 0,2.576 0.573,4.539 1.721,5.889 1.148,1.347 2.788,2.023 4.922,2.023 0.683,0 1.37,-0.076 2.054,-0.226 C 2.709,1.736 3.323,1.449 3.866,1.025 4.41,0.604 4.853,0.004 5.195,-0.771 c 0.343,-0.774 0.513,-1.797 0.513,-3.065 0,-0.664 -0.06,-1.4 -0.181,-2.203 l -9.693,0 c 0,-0.887 0.091,-1.672 0.271,-2.357 0.182,-0.684 0.464,-1.262 0.847,-1.735 0.382,-0.473 0.88,-0.836 1.493,-1.088 0.616,-0.252 1.366,-0.377 2.25,-0.377 0.685,0 1.37,0.119 2.055,0.362 0.685,0.242 1.197,0.523 1.54,0.845 l 0.905,-1.75 z"
             style="fill:#666769;fill-opacity:1;fill-rule:nonzero;stroke:none"
             id="path74" /></g><g
           id="g76"
           transform="translate(461.002,48.4395)"><path
             d="m 0,0 c -0.604,0.203 -1.179,0.305 -1.721,0.305 -0.867,0 -1.55,-0.239 -2.052,-0.711 -0.505,-0.473 -0.818,-1.073 -0.937,-1.797 l 0,-10.568 -2.417,0 0,15.097 1.691,0 0.455,-1.842 0.119,0 c 0.383,0.684 0.841,1.213 1.373,1.586 0.535,0.373 1.214,0.559 2.039,0.559 0.584,0 1.238,-0.102 1.963,-0.303 L 0,0 z"
             style="fill:#666769;fill-opacity:1;fill-rule:nonzero;stroke:none"
             id="path78" /></g><g
           id="g80"
           transform="translate(465.3203,50.7656)"><path
             d="m 0,0 2.354,0 0,2.99 2.415,0.694 0,-3.684 4.107,0 0,-2.113 -4.107,0 0,-8.366 c 0,-1.044 0.13,-1.785 0.393,-2.218 0.261,-0.432 0.703,-0.649 1.328,-0.649 0.525,0 0.966,0.055 1.329,0.164 0.363,0.112 0.766,0.258 1.209,0.44 l 0.542,-1.842 c -0.542,-0.264 -1.137,-0.475 -1.78,-0.635 -0.646,-0.16 -1.34,-0.24 -2.084,-0.24 -1.227,0 -2.093,0.346 -2.598,1.041 -0.502,0.695 -0.754,1.857 -0.754,3.488 l 0,8.817 L 0,-2.113 0,0 z"
             style="fill:#666769;fill-opacity:1;fill-rule:nonzero;stroke:none"
             id="path82" /></g><g
           id="g84"
           transform="translate(483.8594,37.5391)"><path
             d="M 0,0 C 0.564,0 1.067,0.076 1.51,0.229 1.951,0.379 2.335,0.57 2.657,0.801 2.98,1.031 3.246,1.289 3.458,1.57 3.671,1.854 3.825,2.125 3.925,2.387 l 0,2.508 C 3.645,4.914 3.357,4.928 3.064,4.937 2.773,4.949 2.487,4.953 2.204,4.953 1.58,4.953 0.973,4.918 0.377,4.848 -0.216,4.777 -0.74,4.646 -1.191,4.455 -1.646,4.264 -2.008,4.002 -2.279,3.67 -2.552,3.338 -2.687,2.922 -2.687,2.416 -2.687,1.713 -2.436,1.133 -1.932,0.682 -1.43,0.229 -0.784,0 0,0 m -4.288,12.109 c 0.765,0.463 1.655,0.805 2.674,1.028 1.014,0.22 2.078,0.332 3.185,0.332 1.046,0 1.887,-0.141 2.521,-0.422 C 4.727,12.764 5.209,12.396 5.54,11.943 5.874,11.49 6.095,10.994 6.206,10.449 6.316,9.906 6.37,9.363 6.37,8.818 6.37,7.611 6.342,6.432 6.281,5.285 6.222,4.139 6.191,3.051 6.191,2.023 c 0,-0.744 0.031,-1.447 0.09,-2.113 0.061,-0.664 0.172,-1.277 0.331,-1.84 l -1.78,0 -0.635,2.112 -0.149,0 C 3.865,-0.1 3.641,-0.377 3.366,-0.648 3.095,-0.92 2.769,-1.162 2.386,-1.373 2.003,-1.584 1.561,-1.762 1.057,-1.9 0.554,-2.041 -0.02,-2.111 -0.664,-2.111 c -0.645,0 -1.244,0.099 -1.798,0.3 -0.553,0.202 -1.031,0.489 -1.433,0.862 -0.403,0.371 -0.72,0.818 -0.95,1.342 -0.233,0.525 -0.347,1.119 -0.347,1.783 0,0.885 0.178,1.625 0.543,2.219 0.361,0.595 0.871,1.066 1.525,1.419 0.654,0.354 1.437,0.602 2.354,0.754 0.916,0.153 1.927,0.229 3.035,0.229 l 0.83,0 c 0.271,0 0.55,-0.022 0.83,-0.063 0.062,0.606 0.092,1.149 0.092,1.631 0,1.108 -0.222,1.883 -0.664,2.326 -0.443,0.444 -1.249,0.664 -2.416,0.664 -0.342,0 -0.711,-0.025 -1.103,-0.078 -0.393,-0.05 -0.794,-0.125 -1.208,-0.216 -0.412,-0.094 -0.805,-0.209 -1.178,-0.344 -0.372,-0.133 -0.7,-0.283 -0.981,-0.447 l -0.755,1.839 z"
             style="fill:#666769;fill-opacity:1;fill-rule:nonzero;stroke:none"
             id="path86" /></g><g
           id="g88"
           transform="translate(512.8789,37.4199)"><path
             d="M 0,0 C 1.026,0 1.841,0.266 2.445,0.801 3.049,1.332 3.462,2.143 3.684,3.23 l 0,7.489 C 3.32,11 2.908,11.203 2.445,11.324 c -0.463,0.119 -1.077,0.18 -1.842,0.18 -1.39,0 -2.475,-0.457 -3.26,-1.373 C -3.443,9.215 -3.835,7.75 -3.835,5.738 -3.835,4.91 -3.77,4.146 -3.64,3.441 -3.509,2.736 -3.292,2.133 -2.99,1.631 -2.688,1.127 -2.29,0.73 -1.796,0.437 -1.305,0.146 -0.704,0 0,0 m 6.099,3.441 c 0,-1.025 0.009,-1.957 0.031,-2.793 0.019,-0.835 0.109,-1.656 0.271,-2.459 l -1.631,0 -0.603,2.143 -0.123,0 C 3.643,-0.373 3.06,-0.955 2.294,-1.42 1.529,-1.883 0.633,-2.113 -0.394,-2.113 c -2.013,0 -3.506,0.633 -4.484,1.902 -0.976,1.268 -1.464,3.252 -1.464,5.949 0,2.576 0.609,4.533 1.826,5.871 1.219,1.34 2.893,2.01 5.03,2.01 0.744,0 1.333,-0.041 1.764,-0.121 0.434,-0.082 0.901,-0.211 1.406,-0.393 l 0,6.282 2.415,0 0,-15.946 z"
             style="fill:#666769;fill-opacity:1;fill-rule:nonzero;stroke:none"
             id="path90" /></g><g
           id="g92"
           transform="translate(527.5537,43.2168)"><path
             d="M 0,0 C 0,-0.764 0.076,-1.5 0.228,-2.203 0.377,-2.91 0.613,-3.521 0.937,-4.047 1.259,-4.57 1.681,-4.992 2.203,-5.314 2.729,-5.637 3.363,-5.797 4.107,-5.797 6.846,-5.818 8.213,-3.887 8.213,0 8.213,0.785 8.138,1.529 7.987,2.234 7.836,2.941 7.601,3.553 7.277,4.078 6.954,4.6 6.533,5.018 6.01,5.33 5.485,5.641 4.852,5.799 4.107,5.799 1.368,5.818 0,3.885 0,0 m -2.506,0 c 0,2.557 0.569,4.516 1.705,5.875 1.139,1.357 2.774,2.037 4.908,2.037 1.126,0 2.109,-0.185 2.944,-0.558 C 7.885,6.98 8.577,6.447 9.119,5.754 9.663,5.059 10.065,4.223 10.328,3.246 10.59,2.27 10.719,1.187 10.719,0 10.719,-2.557 10.152,-4.514 9.014,-5.873 7.877,-7.23 6.24,-7.91 4.107,-7.91 c -1.128,0 -2.109,0.185 -2.943,0.556 -0.836,0.374 -1.525,0.907 -2.071,1.602 -0.543,0.695 -0.945,1.529 -1.208,2.506 -0.26,0.976 -0.391,2.059 -0.391,3.246"
             style="fill:#666769;fill-opacity:1;fill-rule:nonzero;stroke:none"
             id="path94" /></g><g
           id="g96"
           transform="translate(564.4531,41.043)"><path
             d="M 0,0 C 0,0.846 -0.253,1.535 -0.755,2.068 -1.257,2.6 -1.887,3.076 -2.641,3.488 -3.396,3.9 -4.218,4.289 -5.103,4.65 c -0.885,0.364 -1.706,0.801 -2.46,1.315 -0.757,0.512 -1.386,1.146 -1.888,1.902 -0.503,0.754 -0.755,1.715 -0.755,2.883 0,1.65 0.573,2.961 1.721,3.926 1.148,0.967 2.779,1.451 4.892,1.451 1.229,0 2.345,-0.094 3.352,-0.275 1.007,-0.178 1.792,-0.413 2.355,-0.692 L 1.36,12.924 c -0.464,0.228 -1.142,0.447 -2.04,0.654 -0.894,0.207 -1.906,0.311 -3.033,0.311 -1.329,0 -2.326,-0.295 -2.989,-0.889 C -7.366,12.406 -7.7,11.705 -7.7,10.9 -7.7,10.115 -7.448,9.461 -6.943,8.938 -6.441,8.414 -5.812,7.947 -5.057,7.535 -4.303,7.121 -3.483,6.713 -2.595,6.312 -1.71,5.908 -0.891,5.441 -0.136,4.908 0.619,4.373 1.249,3.734 1.751,2.988 2.256,2.246 2.508,1.318 2.508,0.211 2.508,-0.695 2.346,-1.51 2.024,-2.234 1.701,-2.959 1.228,-3.582 0.606,-4.107 c -0.626,-0.524 -1.38,-0.924 -2.267,-1.207 -0.885,-0.284 -1.893,-0.422 -3.018,-0.422 -1.509,0 -2.758,0.115 -3.747,0.345 -0.985,0.231 -1.75,0.489 -2.293,0.772 l 0.845,2.234 c 0.463,-0.254 1.147,-0.506 2.055,-0.75 0.905,-0.244 1.921,-0.369 3.048,-0.369 0.665,0 1.288,0.066 1.873,0.197 0.583,0.131 1.087,0.344 1.511,0.633 0.421,0.293 0.758,0.66 1.01,1.104 C -0.125,-1.129 0,-0.604 0,0"
             style="fill:#666769;fill-opacity:1;fill-rule:nonzero;stroke:none"
             id="path98" /></g><g
           id="g100"
           transform="translate(585.3496,56.8066)"><path
             d="m 0,0 2.416,0 0,-14.102 c 0,-1.267 -0.167,-2.367 -0.498,-3.293 -0.332,-0.925 -0.805,-1.685 -1.42,-2.279 -0.613,-0.596 -1.353,-1.033 -2.219,-1.314 -0.867,-0.282 -1.822,-0.422 -2.867,-0.422 -2.498,0 -4.381,0.562 -5.648,1.691 -1.269,1.127 -1.903,2.838 -1.903,5.133 l 0,14.586 2.507,0 0,-13.408 c 0,-1.069 0.106,-1.967 0.319,-2.703 0.209,-0.737 0.526,-1.326 0.949,-1.782 0.424,-0.453 0.95,-0.781 1.585,-0.982 0.635,-0.199 1.374,-0.301 2.22,-0.301 1.629,0 2.796,0.449 3.502,1.344 0.705,0.896 1.057,2.371 1.057,4.424 L 0,0 z"
             style="fill:#666769;fill-opacity:1;fill-rule:nonzero;stroke:none"
             id="path102" /></g><g
           id="g104"
           transform="translate(604.7051,41.043)"><path
             d="M 0,0 C 0,0.846 -0.252,1.535 -0.755,2.068 -1.257,2.6 -1.887,3.076 -2.642,3.488 -3.396,3.9 -4.218,4.289 -5.103,4.65 c -0.885,0.364 -1.705,0.801 -2.46,1.315 -0.756,0.512 -1.386,1.146 -1.889,1.902 -0.502,0.754 -0.755,1.715 -0.755,2.883 0,1.65 0.574,2.961 1.723,3.926 1.147,0.967 2.778,1.451 4.891,1.451 1.229,0 2.345,-0.094 3.352,-0.275 1.007,-0.178 1.792,-0.413 2.356,-0.692 L 1.36,12.924 c -0.464,0.228 -1.143,0.447 -2.039,0.654 -0.895,0.207 -1.908,0.311 -3.034,0.311 -1.33,0 -2.326,-0.295 -2.989,-0.889 C -7.366,12.406 -7.7,11.705 -7.7,10.9 -7.7,10.115 -7.448,9.461 -6.943,8.938 -6.441,8.414 -5.812,7.947 -5.058,7.535 -4.303,7.121 -3.482,6.713 -2.596,6.312 -1.71,5.908 -0.89,5.441 -0.136,4.908 0.618,4.373 1.249,3.734 1.751,2.988 2.255,2.246 2.508,1.318 2.508,0.211 2.508,-0.695 2.347,-1.51 2.024,-2.234 1.702,-2.959 1.228,-3.582 0.605,-4.107 -0.019,-4.631 -0.774,-5.031 -1.66,-5.314 c -0.886,-0.284 -1.893,-0.422 -3.02,-0.422 -1.509,0 -2.758,0.115 -3.745,0.345 -0.986,0.231 -1.751,0.489 -2.294,0.772 l 0.844,2.234 c 0.464,-0.254 1.148,-0.506 2.055,-0.75 0.907,-0.244 1.922,-0.369 3.05,-0.369 0.664,0 1.288,0.066 1.872,0.197 0.584,0.131 1.086,0.344 1.51,0.633 0.421,0.293 0.758,0.66 1.011,1.104 C -0.124,-1.129 0,-0.604 0,0"
             style="fill:#666769;fill-opacity:1;fill-rule:nonzero;stroke:none"
             id="path106" /></g><g
           id="g108"
           transform="translate(199.7178,146.7769)"><path
             d="m 0,0 c 9.527,0 9.409,-9.431 9.409,-9.431 l 0,-33.369 c 0,-7.68 0.585,-17.312 15.272,-17.312 2.43,0 9.724,0.096 13.615,6.123 1.46,2.141 2.24,4.865 2.24,11.967 l 0,32.807 C 40.536,0.25 50.057,0 50.057,0 l 5.166,0 0,-43.87 c 0,-20.913 -16.631,-27.622 -30.833,-27.622 -7.006,0 -19.846,1.555 -26.462,12.153 -3.4,5.35 -3.595,10.801 -3.595,17.317 L -5.667,0 0,0 z"
             style="fill:#00b3f0;fill-opacity:1;fill-rule:nonzero;stroke:none"
             id="path110" /></g><g
           id="g112"
           transform="translate(309.9844,138.3032)"><path
             d="m 0,0 0,-41.923 -4.492,8.169 -20.451,37.703 c 0,0 -1.797,4.524 -7.887,4.524 l -5.524,0 c 0,0 -7.391,0.37 -7.391,-9.619 l 0,-61.546 6.022,0 c 8.627,0 8.349,9.213 8.349,9.213 l 0,40.86 16.948,-31.14 7.995,-14.734 c 0,0 1.797,-4.525 7.888,-4.525 l 5.521,0 c 0,0 7.394,-0.367 7.394,9.622 l 0,61.546 -5.221,0 C 9.151,8.15 0,8.482 0,0"
             style="fill:#00b3f0;fill-opacity:1;fill-rule:nonzero;stroke:none"
             id="path114" /></g><g
           id="g116"
           transform="translate(378.0283,102.228)"><path
             d="M 0,0 -9.871,30.396 -20.426,0 0,0 z M 2.261,36.863 C 4.742,29.419 24.38,-26.943 24.38,-26.943 l -15.398,0 -5.135,15.396 -28.22,0 -5.334,-15.396 -14.602,0 c 0,0 20.586,56.508 23.286,63.806 1.711,4.625 5.706,6.683 8.408,7.377 1.56,0.399 3.996,0.416 5.775,0.031 3.066,-0.662 7.529,-2.695 9.101,-7.408"
             style="fill:#00b3f0;fill-opacity:1;fill-rule:nonzero;stroke:none"
             id="path118" /></g><g
           id="g120"
           transform="translate(423.7617,102.7583)"><path
             d="m 0,0 -16.597,0 c -7.875,0 -10.549,13.684 -10.549,13.684 l 16.599,0 C -2.307,13.684 0,0 0,0"
             style="fill:#00b3f0;fill-opacity:1;fill-rule:nonzero;stroke:none"
             id="path122" /></g><g
           id="g124"
           transform="translate(582.0244,102.0015)"><path
             d="m 0,0 -13.294,3.906 c -8.596,2.746 -14.468,10.955 -14.468,19.931 0,11.726 9.398,21.062 21.113,21.062 l 26.201,0 0,-9.336 -18.368,0 c -3.541,0 -6.653,-2.724 -6.653,-6.646 0,-2.346 1.571,-5.08 4.31,-5.852 l 12.9,-4.306 c 8.975,-2.73 13.668,-11.715 13.668,-21.893 0,-12.903 -10.542,-23.46 -23.451,-23.46 l -27.744,0 0,10.557 23.84,0 c 3.506,0 7.426,3.513 7.426,8.214 C 5.48,-4.305 3.524,-1.175 0,0"
             style="fill:#2b65ac;fill-opacity:1;fill-rule:nonzero;stroke:none"
             id="path126" /></g><g
           id="g128"
           transform="translate(516.8809,75.2837)"><path
             d="m 0,0 c -15.619,0 -27.809,11.029 -27.809,24.739 l 0,46.755 20.947,0 0,-48.647 c 0,-6.11 5.322,-11.038 12.184,-11.038 6.467,0 12.179,4.928 12.179,11.038 l 0,48.647 9.897,0 0,-46.755 C 27.398,11.029 15.222,0 0,0"
             style="fill:#2b65ac;fill-opacity:1;fill-rule:nonzero;stroke:none"
             id="path130" /></g><g
           id="g132"
           transform="translate(454.5879,101.8784)"><path
             d="m 0,0 -13.274,3.905 c -8.216,2.747 -14.071,10.956 -14.071,19.933 0,11.725 9.383,21.061 21.121,21.061 l 26.182,0 0,-9.336 -18.385,0 c -3.505,0 -6.638,-2.724 -6.638,-6.645 0,-2.347 1.568,-5.08 4.302,-5.853 l 12.898,-4.306 c 8.607,-2.73 13.289,-11.716 13.289,-21.894 0,-12.901 -10.173,-23.459 -23.072,-23.459 l -27.731,0 0,10.558 23.835,0 c 3.523,0 7.415,3.513 7.415,8.213 C 5.871,-4.305 3.528,-1.175 0,0"
             style="fill:#2b65ac;fill-opacity:1;fill-rule:nonzero;stroke:none"
             id="path134" /></g><g
           id="g136"
           transform="translate(90.3535,2.873)"><path
             d="m 0,0 c -46.472,0 -84.28,37.807 -84.28,84.28 l 0,1.373 17.25,0 0,-1.373 c 0,-36.96 30.07,-67.028 67.03,-67.028 36.955,0 67.023,30.068 67.023,67.028 l 0,1.373 17.251,0 0,-1.373 C 84.274,37.807 46.469,0 0,0"
             style="fill:#00b3f0;fill-opacity:1;fill-rule:nonzero;stroke:none"
             id="path138" /></g><g
           id="g140"
           transform="translate(6.1997,96.8062)"><path
             d="m 0,0 -0.006,66.934 1.365,0 c 4.948,0 8.852,-1.463 11.615,-4.342 C 17.41,57.966 17.186,51.4 17.175,51.125 L 17.175,0 0,0 z"
             style="fill:#2b65ac;fill-opacity:1;fill-rule:nonzero;stroke:none"
             id="path142" /></g><g
           id="g144"
           transform="translate(157.3398,96.8062)"><path
             d="m 0,0 0,51.183 c -0.01,0.217 -0.233,6.783 4.206,11.409 2.759,2.879 6.662,4.342 11.601,4.342 l 1.367,0 0.007,-1.367 L 17.174,0 0,0 z"
             style="fill:#2b65ac;fill-opacity:1;fill-rule:nonzero;stroke:none"
             id="path146" /></g><g
           id="g148"
           transform="translate(107.5566,140.145)"><path
             d="m 0,0 c 0,7.01 -6.298,6.207 -6.298,6.207 l -24.741,0 c 0,0 -4.478,-0.023 -4.478,-4.352 l 0,-29.111 35.517,0 L 0,0 z"
             style="fill:#2b65ac;fill-opacity:1;fill-rule:nonzero;stroke:none"
             id="path150" /></g><g
           id="g152"
           transform="translate(72.0396,45.5234)"><path
             d="m 0,0 c 0,-7.012 6.298,-6.209 6.298,-6.209 l 24.743,0 c 0,0 4.476,0.023 4.476,4.354 l 0,29.111 L 0,27.256 0,0 z"
             style="fill:#2b65ac;fill-opacity:1;fill-rule:nonzero;stroke:none"
             id="path154" /></g><g
           id="g156"
           transform="translate(36.3579,108.981)"><path
             d="m 0,0 0,-20.824 c 0,-11.957 9.723,-11.268 9.723,-11.268 l 58.435,0 L 35.138,-0.005 0,0 z"
             style="fill:#2b65ac;fill-opacity:1;fill-rule:nonzero;stroke:none"
             id="path158" /></g><g
           id="g160"
           transform="translate(143.5205,97.8228)"><path
             d="m 0,0 c 0,11.92 -9.693,11.232 -9.693,11.232 l -19.863,0 c 0.005,-0.023 0.006,-0.049 0.011,-0.074 l -38.946,0 12.684,-12.281 12.269,12.271 11.343,-11.345 -12.087,-12.084 1.096,-1.063 11.163,11.16 0.891,-0.891 -11.145,-11.146 1.084,-1.049 9.9,9.901 0.894,-0.891 -9.888,-9.887 4.819,-4.665 33.25,0.034 0,0.018 2.218,0 L 0,0 z"
             style="fill:#2b65ac;fill-opacity:1;fill-rule:nonzero;stroke:none"
             id="path162" /></g></g></g></g></svg>